<?xml version="1.0" encoding="UTF-8"?>
<svg width="40px" height="40px" viewBox="0 0 40 40" version="1.1" xmlns="http://www.w3.org/2000/svg" xmlns:xlink="http://www.w3.org/1999/xlink">
    <!-- Generator: sketchtool 52.5 (67469) - http://www.bohemiancoding.com/sketch -->
    <title>B5B6F792-AD56-46A3-A1B4-3EAFBA42A602</title>
    <desc>Created with sketchtool.</desc>
    <g id="Page-1" stroke="none" stroke-width="1" fill="none" fill-rule="evenodd">
        <g id="ui" transform="translate(-307.000000, -843.000000)">
            <g id="Group-4" transform="translate(307.000000, 843.000000)">
                <g id="Group-4-Copy">
                    <g id="Group">
                        <path d="M19.9677116,1.81571043 C9.96209093,1.81571043 1.82069782,9.92951422 1.82069782,19.903746 C1.82069782,29.8770923 9.96209093,37.9913388 19.9677116,37.9913388 C29.9746648,37.9913388 38.1151695,29.8770923 38.1151695,19.903746 C38.1151695,9.92951422 29.9746648,1.81571043 19.9677116,1.81571043 Z M19.9677116,39.8066065 C8.95735356,39.8066065 0,30.8790315 0,19.903746 C0,8.92801775 8.95735356,0 19.9677116,0 C30.9785138,0 39.9358674,8.92801775 39.9358674,19.903746 C39.9358674,30.8790315 30.9785138,39.8066065 19.9677116,39.8066065 Z" id="Fill-21" fill="#FFFFFF"></path>
                        <path d="M19.846006,34.6924219 C11.584684,34.6924219 4.88599074,28.0162215 4.88599074,19.7815475 C4.88599074,11.5464307 11.584684,4.87023036 19.846006,4.87023036 C28.1077722,4.87023036 34.8064655,11.5464307 34.8064655,19.7815475 C34.8064655,28.0162215 28.1077722,34.6924219 19.846006,34.6924219 Z" id="Fill-22" fill="#FFFFFF"></path>
                        <g id="Group-25" transform="translate(5.214554, 5.214554)"></g>
                        <path d="M33.5907421,25.7205721 L31.7971393,7.96946787 L8.59090426,7.96946787 L6.66271464,27.0638701 C9.20032056,31.6963447 14.1325061,34.8389715 19.8011437,34.8389715 C26.0023543,34.8389715 31.3227541,31.0787109 33.5907421,25.7205721 Z" id="Fill-26" fill="#323330"></path>
                        <path d="M25.9064112,13.0982632 C25.4844393,14.6315003 24.0488464,18.2762036 19.9304004,18.2762036 C15.8199496,18.2762036 14.6393166,14.6633781 14.3208388,13.1031334 C14.0001402,12.9911181 13.7696103,12.6900493 13.7696103,12.3323088 C13.7696103,11.8789346 14.1378363,11.5114536 14.5909009,11.5114536 C15.0457422,11.5114536 15.4144124,11.8789346 15.4144124,12.3323088 C15.4144124,12.5758203 15.3051439,12.7923242 15.1359109,12.9428586 C15.3948684,14.2994391 16.3791735,17.4385239 19.9304004,17.4385239 C23.4309907,17.4385239 24.6937972,14.3255612 25.081123,12.9477288 C24.9078924,12.7976372 24.7959588,12.5793623 24.7959588,12.3323088 C24.7959588,11.8789346 25.1641848,11.5114536 25.6190262,11.5114536 C26.0725349,11.5114536 26.4416493,11.8789346 26.4416493,12.3323088 C26.4416493,12.6842936 26.2191146,12.9809349 25.9064112,13.0982632" id="Fill-27" fill="#FFFFFE"></path>
                    </g>
                </g>
            </g>
        </g>
    </g>
</svg>