<?xml version="1.0" encoding="UTF-8"?>
<svg width="24px" height="30px" viewBox="0 0 24 30" version="1.1" xmlns="http://www.w3.org/2000/svg" xmlns:xlink="http://www.w3.org/1999/xlink">
    <!-- Generator: sketchtool 52.5 (67469) - http://www.bohemiancoding.com/sketch -->
    <title>6648E2E5-86C9-4ED7-B1E9-6FFDB4A07C8E</title>
    <desc>Created with sketchtool.</desc>
    <g id="Page-1" stroke="none" stroke-width="1" fill="none" fill-rule="evenodd">
        <g id="ui" transform="translate(-486.000000, -848.000000)" fill="#FFFFFF">
            <g id="Group-7" transform="translate(486.000000, 848.000000)">
                <g id="shopping-bag">
                    <path d="M16.0007821,4.71449826 C15.7300642,2.53768241 14.0784712,0.895940365 12.1592366,0.895940365 C10.9249557,0.895940365 9.75273656,1.5792451 9.0239116,2.72442884 C8.87504352,2.95797697 8.91958357,3.28558883 9.12315699,3.45637665 C9.32606165,3.62655068 9.61229497,3.57606623 9.76089555,3.34221121 C10.318783,2.46648246 11.2152016,1.94353107 12.1591028,1.94353107 C13.626918,1.94353107 14.8896885,3.19843026 15.0967395,4.86226885 C15.1293755,5.1235911 15.3247899,5.31217891 15.5482927,5.31217891 C15.5695595,5.31217891 15.5914952,5.31033753 15.6132971,5.30696167 C15.8628818,5.265991 16.0363606,5.00067911 16.0007821,4.71449826 Z" id="Path" transform="translate(12.470657, 3.104060) rotate(-5.000000) translate(-12.470657, -3.104060) "></path>
                    <path d="M21.9378769,9.80259898 L20.5717098,8.22545014 C20.4895263,8.13036101 20.3413025,8.07232799 20.1812048,8.07232799 L18.8720058,8.07232799 C18.6206524,8.07232799 18.4166613,8.21362175 18.4166613,8.3877208 C18.4166613,8.56181985 18.6206524,8.7031136 18.8720058,8.7031136 L19.9234475,8.7031136 L20.7431478,9.64938443 L2.31443433,9.64938443 L3.13413458,8.7031136 L3.61642892,8.7031136 C3.86778231,8.7031136 4.07177347,8.56181985 4.07177347,8.3877208 C4.07177347,8.21362175 3.86778231,8.07232799 3.61642892,8.07232799 L2.87637727,8.07232799 C2.71627957,8.07232799 2.56805578,8.13036101 2.48587229,8.22545014 L1.1197052,9.80259898 C1.03525366,9.90018316 1.03325244,10.0215165 1.11396837,10.1203944 C1.1946843,10.2192723 1.34597663,10.2804473 1.51021019,10.2804473 L21.5473719,10.2804473 C21.7116055,10.2804473 21.8627644,10.2192723 21.9436137,10.1203944 C22.0244631,10.0215165 22.0223284,9.89999834 21.9378769,9.80259898 Z" id="Path"></path>
                    <path d="M19.6761705,5.3870033 C19.6222019,5.28021459 19.5360555,5.20445139 19.4364733,5.17591899 L14.1828936,3.66854988 C14.0834243,3.63987898 13.9786485,3.66120902 13.8917117,3.72713824 C13.8050008,3.79334448 13.7431288,3.89902514 13.7198704,4.0211881 L13.323687,6.09878956 C13.2751379,6.35294947 13.4038495,6.60724789 13.611143,6.66652878 C13.8183235,6.72608669 14.0258428,6.56818898 14.0741661,6.31389056 L14.3826224,4.6968241 L18.8856101,5.9889537 L18.1780349,9.70024243 C18.1294857,9.95440234 18.2581974,10.2087008 18.4654908,10.2679817 C18.4951848,10.2764306 18.524653,10.2804473 18.5537825,10.2804473 C18.7287852,10.2804473 18.8871908,10.1333531 18.9284011,9.91548194 L19.7238164,5.74393523 C19.7473006,5.62191077 19.7301391,5.4933765 19.6761705,5.3870033 Z" id="Path"></path>
                    <path d="M10.943426,7.04814047 L10.5878993,3.5094474 C10.5757817,3.38850899 10.52331,3.27806356 10.4419161,3.20272928 C10.3605222,3.12739501 10.257751,3.09295648 10.1545225,3.10721618 L3.62814904,4.0149942 C3.41426141,4.04485886 3.26130489,4.2730141 3.28656901,4.52498034 L3.8793041,10.4270173 C3.90285346,10.660688 4.07124281,10.8324771 4.26638241,10.8324771 C4.28158661,10.8324771 4.29724807,10.8312664 4.31279522,10.8292485 C4.52656853,10.7993838 4.67952505,10.5712286 4.65437525,10.3192623 L4.10736707,4.87286326 L9.85878369,4.07297469 L10.1683549,7.15562634 C10.1937333,7.40745806 10.3867009,7.58637696 10.6017317,7.55785756 C10.8156193,7.52826195 10.9685758,7.29997219 10.943426,7.04814047 Z" id="Path"></path>
                    <path d="M15.3124392,10.1679825 L14.4474764,5.724244 C14.4204104,5.5856039 14.349809,5.46557533 14.2513756,5.39097149 C14.1529422,5.31699856 14.0348476,5.29381302 13.9218598,5.32693523 L6.90168084,7.41268798 C6.6676621,7.48208689 6.52365057,7.77293142 6.57982528,8.06204098 L7.01211521,10.2831216 C7.06828992,10.5725466 7.30371302,10.7506179 7.53760408,10.6807458 C7.77162282,10.6113469 7.91563434,10.3205024 7.85945964,10.0313928 L7.52892254,8.33364308 L13.7017571,6.49993456 L14.4648395,10.4200267 C14.5127156,10.666866 14.6914534,10.8324771 14.8881925,10.8324771 C14.922025,10.8324771 14.9562405,10.8275876 14.9905837,10.8173355 C15.2246024,10.7477789 15.368614,10.4570921 15.3124392,10.1679825 Z" id="Path"></path>
                    <path d="M22.1021704,10.3145825 C22.0895099,10.0569849 21.8877499,9.85476932 21.6428903,9.85476932 L1.41476646,9.85476932 C1.16990686,9.85476932 0.968146858,10.0568429 0.95548635,10.3145825 L0.0359833207,29.2183277 C0.0295183807,29.3509607 0.0750423332,29.4807535 0.161780278,29.5770331 C0.24865291,29.6731707 0.369062417,29.7278428 0.495128747,29.7278428 L22.562124,29.7278428 C22.6880556,29.7278428 22.8085998,29.6733127 22.8958765,29.5770331 C22.9824797,29.4807535 23.0280037,29.3511027 23.0216734,29.2183277 L22.1021704,10.3145825 Z M0.978921758,28.7583726 L1.8512846,10.8240975 L21.2058334,10.8240975 L22.0781963,28.7583726 L0.978921758,28.7583726 Z" id="Shape" fill-rule="nonzero"></path>
                    <path d="M15.3245852,13.0405964 C14.7209445,13.0405964 14.2299719,13.5358059 14.2299719,14.144656 C14.2299719,14.7535061 14.7209445,15.2487156 15.3245852,15.2487156 C15.9282259,15.2487156 16.4191984,14.7535061 16.4191984,14.144656 C16.4191984,13.5358059 15.9282259,13.0405964 15.3245852,13.0405964 Z M15.3245852,14.5127477 C15.1233003,14.5127477 14.9597497,14.3476779 14.9597497,14.1447638 C14.9597497,13.9418497 15.1234072,13.7767799 15.3245852,13.7767799 C15.5257631,13.7767799 15.6894206,13.9418497 15.6894206,14.1447638 C15.6894206,14.3476779 15.5257631,14.5127477 15.3245852,14.5127477 Z" id="Shape" fill-rule="nonzero"></path>
                    <path d="M7.66229258,13.0405964 C7.05865187,13.0405964 6.56767936,13.5358059 6.56767936,14.144656 C6.56767936,14.7535061 7.05865187,15.2487156 7.66229258,15.2487156 C8.2659333,15.2487156 8.75690581,14.7535061 8.75690581,14.144656 C8.75690581,13.5358059 8.2659333,13.0405964 7.66229258,13.0405964 Z M7.66229258,14.5127477 C7.46111465,14.5127477 7.29745714,14.3476779 7.29745714,14.1447638 C7.29745714,13.9418497 7.46111465,13.7767799 7.66229258,13.7767799 C7.86347052,13.7767799 8.02712803,13.9418497 8.02712803,14.1447638 C8.02712803,14.3476779 7.86347052,14.5127477 7.66229258,14.5127477 Z" id="Shape" fill-rule="nonzero"></path>
                    <path d="M14.8739009,14.144656 L14.8391719,14.144656 C14.5903911,14.144656 14.3884877,14.3424811 14.3884877,14.5862367 C14.3884877,14.6465287 14.4006362,14.7041037 14.4232167,14.7565034 L14.4232167,17.0151248 C14.4232167,18.5978547 13.10893,19.885723 11.4934389,19.885723 C9.87794776,19.885723 8.56366109,18.597984 8.56366109,17.0151248 L8.56366109,14.5863661 C8.56366109,14.3426104 8.36175772,14.1447854 8.11297684,14.1447854 C7.86419596,14.1447854 7.66229258,14.3426104 7.66229258,14.5863661 L7.66229258,17.0152542 C7.66229258,19.0851072 9.3809142,20.7690138 11.4934389,20.7690138 C13.6059636,20.7690138 15.3245852,19.0851072 15.3245852,17.0152542 L15.3245852,14.5863661 C15.3245852,14.3426104 15.1226818,14.144656 14.8739009,14.144656 Z" id="Path"></path>
                </g>
            </g>
        </g>
    </g>
</svg>